<svg width="24" height="24" viewBox="0 0 24 24" fill="none" xmlns="http://www.w3.org/2000/svg">
<path d="M11 9H13V16L12 19L11 16V9Z" fill="#5654A2"/>
<path fill-rule="evenodd" clip-rule="evenodd" d="M8.98656 16.1484C9.07681 16.6933 8.70829 17.2081 8.16343 17.2984C6.74053 17.5341 5.60515 17.8877 4.85486 18.283C4.47923 18.4809 4.2444 18.6663 4.11437 18.8137C4.05196 18.8844 4.02316 18.9357 4.01054 18.9648C4.00438 18.9789 4.00195 18.988 4.00098 18.9925C4.00005 18.9968 4 18.999 4 19V19.0001C4 19.0009 3.99998 19.0052 4.00305 19.0153C4.00645 19.0264 4.01483 19.0484 4.03507 19.0814C4.07752 19.1506 4.16408 19.2545 4.32624 19.3823C4.65642 19.6425 5.19616 19.9206 5.95227 20.1726C7.45402 20.6732 9.59229 21 12 21C14.4077 21 16.546 20.6732 18.0477 20.1726C18.8038 19.9206 19.3436 19.6425 19.6738 19.3823C19.8359 19.2545 19.9225 19.1506 19.9649 19.0814C19.9852 19.0484 19.9935 19.0264 19.9969 19.0153C20 19.0052 20 19.0009 20 19.0001V19C20 18.9993 20 18.9983 19.9997 18.9965C19.9996 18.9954 19.9994 18.9941 19.999 18.9925C19.998 18.988 19.9956 18.9789 19.9895 18.9648C19.9768 18.9357 19.948 18.8844 19.8856 18.8137C19.7556 18.6663 19.5208 18.4809 19.1451 18.283C18.3948 17.8877 17.2595 17.5341 15.8366 17.2984C15.2917 17.2081 14.9232 16.6933 15.0134 16.1484C15.1037 15.6035 15.6186 15.235 16.1634 15.3253C17.704 15.5805 19.0686 15.982 20.0774 16.5136C21.0018 17.0006 22 17.8028 22 19C22 19.8519 21.4811 20.5044 20.9117 20.9531C20.331 21.4108 19.5528 21.7791 18.6802 22.07C16.9246 22.6552 14.5629 23 12 23C9.43715 23 7.07541 22.6552 5.31981 22.07C4.44724 21.7791 3.66896 21.4108 3.08829 20.9531C2.51889 20.5044 2 19.8519 2 19C2 17.8028 2.99824 17.0006 3.92257 16.5136C4.93141 15.982 6.29604 15.5805 7.83657 15.3253C8.38143 15.235 8.8963 15.6035 8.98656 16.1484Z" fill="#5654A2"/>
<path d="M12 10C14.2091 10 16 8.20914 16 6C16 3.79086 14.2091 2 12 2C9.79086 2 8 3.79086 8 6C8 8.20914 9.79086 10 12 10Z" fill="#5654A2"/>
</svg>
